<mxfile host="app.diagrams.net" agent="Mozilla/5.0 (Windows NT 10.0; Win64; x64) AppleWebKit/537.36 (KHTML, like Gecko) Chrome/129.0.0.0 Safari/537.36" version="24.7.17">
  <diagram name="PÃ¡gina-1" id="dxS_KrSWosJc04473751">
    <mxGraphModel dx="265" dy="153" grid="1" gridSize="10" guides="1" tooltips="1" connect="1" arrows="1" fold="1" page="1" pageScale="1" pageWidth="827" pageHeight="1169" math="0" shadow="0">
      <root>
        <mxCell id="0" />
        <mxCell id="1" parent="0" />
        <mxCell id="hkj83cp62gxGMT2fLGzA-1" value="Usuario" style="swimlane;fontStyle=1;align=center;verticalAlign=top;childLayout=stackLayout;horizontal=1;startSize=26;horizontalStack=0;resizeParent=1;resizeParentMax=0;resizeLast=0;collapsible=1;marginBottom=0;whiteSpace=wrap;html=1;" vertex="1" parent="1">
          <mxGeometry x="330" y="200" width="160" height="128" as="geometry" />
        </mxCell>
        <mxCell id="hkj83cp62gxGMT2fLGzA-2" value="- id:int&lt;div&gt;- email:String&lt;/div&gt;&lt;div&gt;- nome:string&lt;/div&gt;&lt;div&gt;- senha:String&lt;/div&gt;" style="text;strokeColor=none;fillColor=none;align=left;verticalAlign=top;spacingLeft=4;spacingRight=4;overflow=hidden;rotatable=0;points=[[0,0.5],[1,0.5]];portConstraint=eastwest;whiteSpace=wrap;html=1;" vertex="1" parent="hkj83cp62gxGMT2fLGzA-1">
          <mxGeometry y="26" width="160" height="68" as="geometry" />
        </mxCell>
        <mxCell id="hkj83cp62gxGMT2fLGzA-3" value="" style="line;strokeWidth=1;fillColor=none;align=left;verticalAlign=middle;spacingTop=-1;spacingLeft=3;spacingRight=3;rotatable=0;labelPosition=right;points=[];portConstraint=eastwest;strokeColor=inherit;" vertex="1" parent="hkj83cp62gxGMT2fLGzA-1">
          <mxGeometry y="94" width="160" height="8" as="geometry" />
        </mxCell>
        <mxCell id="hkj83cp62gxGMT2fLGzA-4" value="+ getters and setters" style="text;strokeColor=none;fillColor=none;align=left;verticalAlign=top;spacingLeft=4;spacingRight=4;overflow=hidden;rotatable=0;points=[[0,0.5],[1,0.5]];portConstraint=eastwest;whiteSpace=wrap;html=1;" vertex="1" parent="hkj83cp62gxGMT2fLGzA-1">
          <mxGeometry y="102" width="160" height="26" as="geometry" />
        </mxCell>
      </root>
    </mxGraphModel>
  </diagram>
</mxfile>
